<?xml version="1.0" encoding="UTF-8"?>
<svg version="1.1" xmlns="http://www.w3.org/2000/svg" width="512" height="512">
<path d="M0 0 C34.65 0 69.3 0 105 0 C105 0.33 105 0.66 105 1 C103.52853516 1.23783203 103.52853516 1.23783203 102.02734375 1.48046875 C70.37496215 6.84159088 42.06617114 22.7929408 23 49 C11.4561578 65.90502734 3.58549531 84.6247534 1 105 C0.67 105 0.34 105 0 105 C0 70.35 0 35.7 0 0 Z " fill="#000000" transform="translate(0,0)"/>
<path d="M0 0 C34.65 0 69.3 0 105 0 C105 34.65 105 69.3 105 105 C104.67 105 104.34 105 104 105 C103.76216797 103.52853516 103.76216797 103.52853516 103.51953125 102.02734375 C98.15840912 70.37496215 82.2070592 42.06617114 56 23 C39.09497266 11.4561578 20.3752466 3.58549531 0 1 C0 0.67 0 0.34 0 0 Z " fill="#000000" transform="translate(407,0)"/>
<path d="M0 0 C56.43 0 112.86 0 171 0 C171 56.1 171 112.2 171 170 C142.95 170 114.9 170 86 170 C86 141.95 86 113.9 86 85 C57.62 85 29.24 85 0 85 C0 56.95 0 28.9 0 0 Z " fill="#000000" transform="translate(213,128)"/>
<path d="M0 0 C28.05 0 56.1 0 85 0 C85 28.05 85 56.1 85 85 C56.95 85 28.9 85 0 85 C0 56.95 0 28.9 0 0 Z " fill="#000000" transform="translate(128,213)"/>
<path d="M0 0 C28.38 0 56.76 0 86 0 C86.020625 13.096875 86.04125 26.19375 86.0625 39.6875 C86.071604 43.81854248 86.08070801 47.94958496 86.09008789 52.20581055 C86.09460449 57.26135254 86.09460449 57.26135254 86.09544373 59.63020325 C86.09697644 61.27998627 86.10048756 62.92976818 86.10557556 64.57954407 C86.11290731 67.08259011 86.11390557 69.58556786 86.11352539 72.08862305 C86.1171235 72.8201015 86.12072161 73.55157995 86.12442875 74.30522442 C86.11673914 78.09343397 85.75244515 81.23777427 85 85 C56.95 85 28.9 85 0 85 C0 56.95 0 28.9 0 0 Z " fill="#000000" transform="translate(213,299)"/>
<path d="M0 0 C0.33 0 0.66 0 1 0 C1.15855469 0.98097656 1.31710938 1.96195312 1.48046875 2.97265625 C6.84159088 34.62503785 22.7929408 62.93382886 49 82 C65.90502734 93.5438422 84.6247534 101.41450469 105 104 C105 104.33 105 104.66 105 105 C70.35 105 35.7 105 0 105 C0 70.35 0 35.7 0 0 Z " fill="#000000" transform="translate(0,407)"/>
<path d="M0 0 C0.33 0 0.66 0 1 0 C1 34.65 1 69.3 1 105 C-33.65 105 -68.3 105 -104 105 C-104 104.67 -104 104.34 -104 104 C-103.01902344 103.84144531 -102.03804688 103.68289063 -101.02734375 103.51953125 C-69.37496215 98.15840912 -41.06617114 82.2070592 -22 56 C-10.4561578 39.09497266 -2.58549531 20.3752466 0 0 Z " fill="#000000" transform="translate(511,407)"/>
</svg>
